<svg
	xmlns="http://www.w3.org/2000/svg" xml:space="preserve" width="140mm" height="50mm" style="shape-rendering:geometricPrecision; text-rendering:geometricPrecision; image-rendering:optimizeQuality; fill-rule:evenodd; clip-rule:evenodd"
	 viewBox="0 0 140 50"
	 xmlns:xlink="http://www.w3.org/1999/xlink">
 <defs>
  <style type="text/css">
   <![CDATA[
    .fil2 {fill:#1F1A17}
    .fil3 {fill:#AAA9A9}
    .fil4 {fill:#008789}
    .fil0 {fill:#212E38;fill-rule:nonzero}
    .fil1 {fill:#10BAB9;fill-rule:nonzero}
   ]]>
  </style>
 </defs>
	<g id="Слой_x0020_1">
  <metadata id="CorelCorpID_0Corel-Layer"/>
		<path class="fil0" d="M9.4327 42.146c-0.3645,0 -0.6766,-0.0609 -0.9346,-0.1815 -0.258,-0.1218 -0.4554,-0.2974 -0.5923,-0.5293 -0.1356,-0.2307 -0.204,-0.5094 -0.204,-0.8361l0 -0.5867c0,-0.3232 0.0684,-0.5984 0.204,-0.8267 0.1369,-0.2295 0.3343,-0.404 0.5923,-0.5234 0.258,-0.1207 0.5701,-0.1804 0.9346,-0.1804 0.2081,0 0.4041,0.0223 0.5885,0.0668 0.1842,0.0445 0.3488,0.1089 0.4963,0.1944 0.146,0.0843 0.2684,0.1873 0.3659,0.3079l0 0 -0.5673 0.4532 0 0c-0.1132,-0.1147 -0.2449,-0.2026 -0.3977,-0.2646 -0.1513,-0.0609 -0.3092,-0.0925 -0.4738,-0.0925 -0.3028,0 -0.5384,0.0761 -0.7056,0.2271 -0.1671,0.1511 -0.2501,0.363 -0.2501,0.6382l0 0.5867c0,0.2811 0.083,0.4977 0.2475,0.6511 0.1658,0.1534 0.4028,0.2307 0.7082,0.2307 0.1672,0 0.3265,-0.034 0.4779,-0.0995 0.1527,-0.0668 0.2829,-0.1605 0.3936,-0.2823l0 0 0.5673 0.4872 0 0c-0.1,0.1194 -0.2238,0.2201 -0.37,0.3044 -0.1473,0.0832 -0.3119,0.1464 -0.4961,0.1897 -0.1844,0.0434 -0.3779,0.0656 -0.5846,0.0656zm4.4974 -0.9707c0,0.0866 0.0224,0.1534 0.0645,0.2002 0.0422,0.0468 0.1014,0.0703 0.179,0.0703l0.37 0 0 0.6663 -0.4621 0c-0.2989,0 -0.5292,-0.0832 -0.6924,-0.2471 -0.1632,-0.1651 -0.2449,-0.397 -0.2449,-0.6968l0 -4.0622 0.7859 0 0 4.0693zm4.5329 0.9707c-0.3698,0 -0.687,-0.062 -0.9491,-0.185 -0.2619,-0.1241 -0.462,-0.3056 -0.5989,-0.5445 -0.1381,-0.2389 -0.2066,-0.527 -0.2066,-0.8654l0 -0.4017c0,-0.3524 0.0658,-0.6534 0.1987,-0.9028 0.1317,-0.2494 0.3239,-0.4391 0.5766,-0.5691 0.2515,-0.13 0.5555,-0.1956 0.9096,-0.1956 0.3344,0 0.62,0.075 0.857,0.2225 0.2356,0.1487 0.4159,0.3642 0.541,0.6452 0.125,0.2811 0.187,0.6195 0.187,1.0118l0 0.2342 -2.7 0 0 -0.5633 1.9522 0 0 0c-0.0237,-0.2904 -0.1079,-0.5164 -0.2527,-0.6768 -0.1448,-0.1616 -0.3396,-0.2424 -0.5845,-0.2424 -0.2975,0 -0.5292,0.0866 -0.6924,0.2611 -0.1632,0.1733 -0.2448,0.4193 -0.2448,0.7378l0 0.452c0,0.2951 0.0882,0.5223 0.2619,0.6792 0.1751,0.1581 0.4239,0.2377 0.745,0.2377 0.1593,0 0.3173,-0.0293 0.474,-0.0867 0.1566,-0.0562 0.2974,-0.137 0.4212,-0.24l0 0 0.5161 0.4602 0 0c-0.1975,0.1686 -0.42,0.2998 -0.6675,0.3923 -0.2461,0.0925 -0.495,0.1393 -0.7438,0.1393zm6.2495 -2.3092c0,-0.2331 -0.071,-0.4146 -0.2105,-0.5434 -0.1409,-0.1288 -0.3384,-0.1944 -0.5964,-0.1944 -0.1593,0 -0.3146,0.0223 -0.4686,0.0656 -0.1527,0.0433 -0.2883,0.1042 -0.4067,0.1815l-0.574 -0.3501c0.1514,-0.1616 0.3515,-0.2881 0.5989,-0.3782 0.2489,-0.0902 0.524,-0.1359 0.828,-0.1359 0.3318,0 0.6148,0.0515 0.8517,0.1558 0.2369,0.1042 0.4174,0.2552 0.5398,0.4531 0.1236,0.1979 0.1856,0.4368 0.1856,0.7155l0 2.2882 -0.7478 0 0 -2.2577zm-0.9807 2.3092c-0.4936,0 -0.8622,-0.0913 -1.1057,-0.2728 -0.2448,-0.1815 -0.3672,-0.4579 -0.3672,-0.8279 0,-0.3525 0.1118,-0.6172 0.3356,-0.7928 0.2237,-0.1768 0.5621,-0.2647 1.0149,-0.2647l1.1374 0 0.054 0.5633 -1.1875 0c-0.2066,0 -0.3592,0.0398 -0.462,0.1218 -0.1014,0.0808 -0.1514,0.2049 -0.1514,0.3724 0,0.1803 0.0672,0.3138 0.2028,0.4005 0.1342,0.0866 0.3396,0.1311 0.6148,0.1311 0.3,0 0.5252,-0.0293 0.6725,-0.0866 0.1475,-0.0563 0.2225,-0.1464 0.2225,-0.267l0.0804 0.5012c-0.0698,0.096 -0.1554,0.1744 -0.2568,0.2365 -0.1012,0.0609 -0.2185,0.1077 -0.3527,0.1382 -0.133,0.0316 -0.2843,0.0468 -0.4516,0.0468zm4.3171 -3.6126l0.7859 0 0 3.5611 -0.7859 0 0 -3.5611zm2.2023 0.8443c-0.0697,-0.0761 -0.1579,-0.1335 -0.2633,-0.1721 -0.1053,-0.0386 -0.2264,-0.0585 -0.3659,-0.0585 -0.2489,0 -0.4423,0.062 -0.5805,0.1838 -0.1369,0.123 -0.2067,0.2928 -0.2067,0.5094l-0.0803 -0.6862c0.1237,-0.212 0.283,-0.3771 0.4779,-0.4954 0.196,-0.1182 0.412,-0.1768 0.6476,-0.1768 0.183,0 0.3488,0.0234 0.4963,0.0703 0.1474,0.0468 0.2764,0.1159 0.3869,0.2072l-0.512 0.6183zm6.4562 -0.8443l0.8214 0 0.7095 2.5423 0.9992 -2.5423 0.5475 0 0.9991 2.5423 0.7096 -2.5423 0.8214 0 -1.2347 3.5611 -0.5938 0 -0.9754 -2.4603 -0.9754 2.4603 -0.5937 0 -1.2347 -3.5611zm9.385 3.6126c-0.3475,0 -0.6437,-0.0609 -0.8912,-0.1815 -0.2461,-0.1218 -0.4357,-0.2986 -0.5647,-0.5305 -0.1304,-0.2318 -0.1948,-0.5117 -0.1948,-0.8384l0 -0.5797c0,-0.3232 0.0644,-0.5995 0.1948,-0.829 0.129,-0.2296 0.3186,-0.4052 0.5647,-0.5246 0.2475,-0.1207 0.5437,-0.1804 0.8912,-0.1804 0.3462,0 0.6437,0.0597 0.8912,0.1804 0.2462,0.1194 0.4343,0.295 0.5647,0.5246 0.129,0.2295 0.1949,0.5058 0.1949,0.829l0 0.5902c0,0.3244 -0.0659,0.6019 -0.1949,0.8315 -0.1304,0.2295 -0.3185,0.4051 -0.5647,0.5269 -0.2475,0.1206 -0.545,0.1815 -0.8912,0.1815zm0 -0.6651c0.2752,0 0.4871,-0.0773 0.6385,-0.2307 0.1501,-0.1534 0.225,-0.3677 0.225,-0.6441l0 -0.5902c0,-0.2775 -0.0749,-0.4906 -0.225,-0.6417 -0.1514,-0.151 -0.3633,-0.2271 -0.6385,-0.2271 -0.2751,0 -0.4883,0.0761 -0.6384,0.2271 -0.1501,0.1511 -0.2252,0.3642 -0.2252,0.6417l0 0.5902c0,0.2764 0.0751,0.4907 0.2252,0.6441 0.1501,0.1534 0.3633,0.2307 0.6384,0.2307zm4.163 -2.9475l0.7858 0 0 3.5611 -0.7858 0 0 -3.5611zm2.2022 0.8443c-0.0697,-0.0761 -0.1579,-0.1335 -0.2632,-0.1721 -0.1054,-0.0386 -0.2264,-0.0585 -0.3659,-0.0585 -0.2489,0 -0.4424,0.062 -0.5805,0.1838 -0.137,0.123 -0.2068,0.2928 -0.2068,0.5094l-0.0802 -0.6862c0.1236,-0.212 0.2829,-0.3771 0.4778,-0.4954 0.1961,-0.1182 0.412,-0.1768 0.6476,-0.1768 0.1831,0 0.3489,0.0234 0.4963,0.0703 0.1474,0.0468 0.2765,0.1159 0.387,0.2072l-0.5121 0.6183zm2.902 1.3654l2.0588 -2.2097 0.9254 0 -3.0355 3.04 0.0513 -0.8303zm-0.3396 -3.6371l0.7858 0 0 4.9885 -0.7858 0 0 -4.9885zm1.269 2.9334l0.5042 -0.4661 1.7481 2.5212 -0.857 0 -1.3953 -2.0551zm9.8219 0.0726c-0.1789,-0.1675 -0.3329,-0.3408 -0.4581,-0.5223 -0.1263,-0.1803 -0.2224,-0.3677 -0.2895,-0.5609 -0.0671,-0.1932 -0.1001,-0.39 -0.1001,-0.5914 0,-0.4368 0.1303,-0.7752 0.3936,-1.0141 0.262,-0.2389 0.6319,-0.3583 1.1097,-0.3583 0.4765,0 0.8451,0.1147 1.1058,0.3454 0.2606,0.2296 0.3909,0.5551 0.3909,0.9755l0 0.0691 -0.7858 0 0 -0.0691c0,-0.2038 -0.0619,-0.3607 -0.1857,-0.4719 -0.1236,-0.1113 -0.2988,-0.1663 -0.5252,-0.1663 -0.2277,0 -0.4055,0.0597 -0.5291,0.1803 -0.1251,0.1195 -0.1869,0.2893 -0.1869,0.5094 0,0.1323 0.0236,0.2693 0.0723,0.4122 0.0487,0.1417 0.1211,0.2822 0.2159,0.4216 0.0961,0.1393 0.2093,0.2717 0.3436,0.3981l2.5643 2.4252 -0.9992 0 -2.1365 -1.9825zm0.3753 -0.2096c-0.3225,0 -0.5701,0.0702 -0.7451,0.2131 -0.1751,0.1417 -0.262,0.3419 -0.262,0.5995 0,0.2542 0.0935,0.4521 0.2791,0.5926 0.1869,0.1405 0.4502,0.2108 0.7884,0.2108 0.3226,0 0.5977,-0.0773 0.8281,-0.2296 0.2303,-0.1534 0.4054,-0.3759 0.5239,-0.6674 0.1197,-0.2916 0.1803,-0.6441 0.1803,-1.0551l0.7477 0c0,0.5445 -0.096,1.0094 -0.2869,1.3947 -0.1922,0.3852 -0.4713,0.6791 -0.8398,0.8817 -0.3674,0.2026 -0.8096,0.3033 -1.3257,0.3033 -0.3502,0 -0.649,-0.0562 -0.8977,-0.1686 -0.2474,-0.1112 -0.4371,-0.274 -0.566,-0.4883 -0.1304,-0.2143 -0.1948,-0.4719 -0.1948,-0.7741 0,-0.4063 0.1263,-0.733 0.3777,-0.9778 0.2514,-0.2447 0.6081,-0.3864 1.0689,-0.425l0.3239 0.5902zm9.1282 -1.369l0.7859 0 0 3.5611 -0.7859 0 0 -3.5611zm2.2023 0.8443c-0.0697,-0.0761 -0.158,-0.1335 -0.2633,-0.1721 -0.1053,-0.0386 -0.2264,-0.0585 -0.3659,-0.0585 -0.2489,0 -0.4423,0.062 -0.5805,0.1838 -0.1369,0.123 -0.2067,0.2928 -0.2067,0.5094l-0.0803 -0.6862c0.1237,-0.212 0.283,-0.3771 0.4779,-0.4954 0.196,-0.1182 0.412,-0.1768 0.6476,-0.1768 0.183,0 0.3488,0.0234 0.4963,0.0703 0.1474,0.0468 0.2764,0.1159 0.3869,0.2072l-0.512 0.6183zm4.2012 2.7683c-0.3699,0 -0.6871,-0.062 -0.9491,-0.185 -0.2619,-0.1241 -0.462,-0.3056 -0.599,-0.5445 -0.1381,-0.2389 -0.2066,-0.527 -0.2066,-0.8654l0 -0.4017c0,-0.3524 0.0658,-0.6534 0.1988,-0.9028 0.1316,-0.2494 0.3238,-0.4391 0.5765,-0.5691 0.2515,-0.13 0.5556,-0.1956 0.9097,-0.1956 0.3343,0 0.6199,0.075 0.8569,0.2225 0.2356,0.1487 0.4159,0.3642 0.541,0.6452 0.125,0.2811 0.187,0.6195 0.187,1.0118l0 0.2342 -2.6999 0 0 -0.5633 1.9521 0 0 0c-0.0237,-0.2904 -0.1079,-0.5164 -0.2527,-0.6768 -0.1448,-0.1616 -0.3396,-0.2424 -0.5844,-0.2424 -0.2976,0 -0.5293,0.0866 -0.6925,0.2611 -0.1632,0.1733 -0.2448,0.4193 -0.2448,0.7378l0 0.452c0,0.2951 0.0882,0.5223 0.2619,0.6792 0.1751,0.1581 0.4239,0.2377 0.7451,0.2377 0.1593,0 0.3172,-0.0293 0.4739,-0.0867 0.1566,-0.0562 0.2975,-0.137 0.4212,-0.24l0 0 0.5161 0.4602 0 0c-0.1975,0.1686 -0.42,0.2998 -0.6675,0.3923 -0.2461,0.0925 -0.495,0.1393 -0.7437,0.1393zm5.4043 0c-0.2368,0 -0.4581,-0.0211 -0.6647,-0.062 -0.2079,-0.041 -0.4015,-0.1031 -0.5805,-0.1851 -0.1804,-0.0819 -0.3462,-0.185 -0.4976,-0.3091l0 0 0.466 -0.5106 0 0c0.2159,0.1464 0.4305,0.2565 0.6437,0.3291 0.2146,0.0738 0.4252,0.1101 0.6331,0.1101 0.3107,0 0.5451,-0.0434 0.7004,-0.1289 0.1553,-0.0854 0.233,-0.2142 0.233,-0.3864 0,-0.1136 -0.0422,-0.2002 -0.1277,-0.2564 -0.0842,-0.0574 -0.1895,-0.0961 -0.3159,-0.116 -0.1263,-0.0187 -0.3028,-0.0363 -0.5318,-0.0527 -0.0212,0 -0.0435,0 -0.0659,-0.0011 -0.0237,-0.0012 -0.0447,-0.0036 -0.0658,-0.0059 -0.0105,0 -0.0211,0 -0.0303,-0.0012 -0.0105,-0.0011 -0.021,-0.0023 -0.0316,-0.0023 -0.2593,-0.0176 -0.4791,-0.0515 -0.6594,-0.1007 -0.1791,-0.0492 -0.3291,-0.1417 -0.449,-0.2764 -0.1197,-0.1346 -0.1789,-0.3279 -0.1789,-0.5796 0,-0.2518 0.0579,-0.4614 0.1737,-0.6277 0.1145,-0.1674 0.2869,-0.2927 0.516,-0.3759 0.2291,-0.0831 0.516,-0.1253 0.8596,-0.1253 0.2094,0 0.4081,0.0176 0.5963,0.0515 0.1896,0.034 0.3699,0.0855 0.5424,0.1523 0.1724,0.0679 0.3383,0.1534 0.4975,0.2564l0 0 -0.4752 0.5106 0 0c-0.2001,-0.1148 -0.3975,-0.2003 -0.591,-0.2576 -0.1948,-0.0562 -0.3844,-0.0855 -0.57,-0.0855 -0.2672,0 -0.4673,0.041 -0.6016,0.1218 -0.133,0.0819 -0.2001,0.2037 -0.2001,0.3653 0,0.096 0.0382,0.1686 0.1146,0.2167 0.0749,0.048 0.1711,0.0796 0.287,0.096 0.1157,0.0152 0.2803,0.0293 0.4936,0.041 0.0145,0.0023 0.0315,0.0035 0.0474,0.0035 0.0171,0 0.0342,0.0012 0.0526,0.0035 0.0079,0 0.0159,0 0.0237,0 0.0065,0 0.0145,0.0012 0.0224,0.0035 0.2804,0.0152 0.5187,0.0492 0.7161,0.0995 0.1961,0.0504 0.3607,0.1499 0.4949,0.2987 0.1343,0.1487 0.2001,0.363 0.2001,0.644 0,0.2565 -0.0618,0.4684 -0.1842,0.637 -0.1238,0.1675 -0.3094,0.294 -0.5582,0.3795 -0.2475,0.0843 -0.5594,0.1264 -0.9347,0.1264zm6.4878 -3.6126l0.7818 0 0 3.5611 -0.7818 0 0 -3.5611zm-1.6284 2.1652c0,0.2495 0.0724,0.4415 0.2146,0.5774 0.1421,0.1358 0.3435,0.2049 0.6042,0.2049 0.2566,0 0.4554,-0.0609 0.5976,-0.1827 0.1409,-0.1206 0.212,-0.2939 0.212,-0.5176l0.054 0.7448c-0.083,0.1756 -0.216,0.3232 -0.4016,0.4426 -0.1856,0.1183 -0.412,0.178 -0.6819,0.178 -0.4422,0 -0.7845,-0.1264 -1.024,-0.3794 -0.2409,-0.2529 -0.3608,-0.6089 -0.3608,-1.068l0 -2.1652 0.7859 0 0 2.1652zm5.7861 0.4767c0,0.0866 0.0224,0.1534 0.0645,0.2002 0.0422,0.0468 0.1014,0.0703 0.179,0.0703l0.3699 0 0 0.6663 -0.462 0c-0.2989,0 -0.5292,-0.0832 -0.6924,-0.2471 -0.1633,-0.1651 -0.2449,-0.397 -0.2449,-0.6968l0 -4.0622 0.7859 0 0 4.0693zm3.9353 0.9368c-0.3238,0 -0.562,-0.0797 -0.7121,-0.2389 -0.1501,-0.1593 -0.2252,-0.3935 -0.2252,-0.705l0 -3.6711 0.7873 0 0 3.6782c0,0.0866 0.0184,0.1534 0.0565,0.2002 0.0396,0.0468 0.0961,0.0703 0.1699,0.0703l0.3778 0 0 0.6663 -0.4542 0zm-1.3506 -3.5787l1.8048 0 0 0.6312 -1.8048 0 0 -0.6312z"/>
		<path class="fil1" d="M44.194 12.9023c-1.1881,1.1772 -2.6213,1.7656 -4.2997,1.7656l-1.1443 0c-1.4606,0 -2.703,0.5287 -3.7275,1.5859 -1.0245,1.0572 -1.5368,2.3159 -1.5368,3.7765l0 4.5448c0,3.0736 -1.0952,5.6838 -3.2859,7.8309 -2.1907,2.1471 -4.8228,3.2207 -7.8962,3.2207l-8.3377 0c0,-2.2016 0.5886,-3.8909 1.7657,-5.0681 1.1771,-1.177 2.5939,-1.7656 4.2505,-1.7656l1.1771 0c1.4822,0 2.7301,-0.5232 3.7438,-1.5694 1.0135,-1.0464 1.5203,-2.3106 1.5203,-3.7928l0 -4.545c0,-3.0734 1.1008,-5.6838 3.3024,-7.8309 2.2015,-2.1471 4.8391,-3.2205 7.9125,-3.2205l8.3377 0c0,2.2016 -0.594,3.8909 -1.7819,5.0679z"/>
		<g id="_143177832">
   <path id="_143175264" class="fil1" d="M118.206 35.6267l-4.8715 0c-0.0072,-4.2569 1.3948,-6.7984 4.8552,-6.8337 1.9235,-0.0196 3.5584,-0.6921 4.8991,-2.0763 1.346,-1.3841 2.0163,-3.0352 2.0163,-4.9535 0,-1.94 -0.6649,-3.6075 -1.9999,-5.0027 -1.3298,-1.395 -2.9701,-2.0926 -4.9155,-2.0926 -1.9455,0 -3.5857,0.6976 -4.9153,2.0926 -1.3353,1.3952 -2,3.0627 -2,5.0027l0 2.9778 0 4.052 0 7.0625c0,1.7221 -0.6213,3.2044 -1.8637,4.4468 -1.2426,1.2424 -2.9973,1.8637 -5.2642,1.8637l0 -20.4028c0,-3.8364 1.3788,-7.1171 4.1361,-9.8417 2.7575,-2.7248 6.0652,-4.0871 9.9234,-4.0871 3.8582,0 7.1714,1.3623 9.9398,4.0871 2.7684,2.7246 4.1525,6.0053 4.1525,9.8417 0,3.8583 -1.3841,7.1334 -4.1525,9.8255 -2.7684,2.6919 -6.0816,4.038 -9.9398,4.038z"/>
			<path id="_143174688" class="fil1" d="M57.1448 35.6266l-4.8715 0c-0.0072,-4.2568 1.3948,-6.7983 4.8552,-6.8336 1.9234,-0.0196 3.5584,-0.6921 4.8991,-2.0763 1.3459,-1.3841 2.0163,-3.0352 2.0163,-4.9535 0,-1.94 -0.6649,-3.6075 -2,-5.0027 -1.3297,-1.3948 -2.97,-2.0924 -4.9154,-2.0924 -1.9455,0 -3.5857,0.6976 -4.9154,2.0924 -1.3352,1.3952 -1.9999,3.0627 -1.9999,5.0027l0 2.9778 0 4.052 0 0.6349c0,1.722 -0.6215,3.2046 -1.8639,4.4467 -1.2424,1.2424 -2.9972,1.8637 -5.2642,1.8637l0 -12.4731 0 -1.502 0 -7.6185c0,-1.722 0.6213,-3.2046 1.8637,-4.447 1.2424,-1.2422 2.9969,-1.8637 5.2639,-1.8637l0 1.7888c2.0703,-1.1918 4.3805,-1.7883 6.9321,-1.7883 3.8582,0 7.1716,1.3623 9.94,4.0871 2.7683,2.7247 4.1524,6.0052 4.1524,9.8416 0,3.8583 -1.3841,7.1334 -4.1524,9.8255 -2.7684,2.6917 -6.0818,4.0379 -9.94,4.0379z"/>
			<path id="_139733488" class="fil1" d="M87.602 35.6267c-3.8582,0 -7.166,-1.357 -9.9235,-4.0707 -2.7573,-2.7139 -4.1361,-5.9999 -4.1361,-9.8582l0 -13.8634c2.267,0 4.0217,0.6212 5.2643,1.8637 1.2424,1.2424 1.8637,2.7248 1.8637,4.4468l0 7.5529c0,1.9183 0.6756,3.5803 2.0272,4.9862 1.3514,1.406 2.9862,2.109 4.9044,2.109 1.9182,0 3.5475,-0.703 4.8882,-2.109 1.3405,-1.4059 2.0108,-3.0679 2.0108,-4.9862l0 -7.5529c0,-1.722 0.6212,-3.2044 1.8637,-4.4468 1.2424,-1.2425 2.9971,-1.8637 5.2641,-1.8637l0 13.8634c0,3.8365 -1.3732,7.117 -4.1198,9.8418 -2.7465,2.7246 -6.0488,4.0871 -9.907,4.0871z"/>
  </g>
		<g id="_143175768">
   <path id="_139733032" class="fil2" d="M8.6935 36.0463l-0.146 -0.2182 3.4223 -4.841c0.3564,-1.8267 0.6432,-3.5925 0.7921,-5.2386 -0.2865,-0.3104 -0.5034,-0.6761 -0.6729,-1.0793 0.8588,-0.753 1.6424,-1.4129 2.3308,-2.1376 0.2815,-0.2965 2.106,-3.2708 3.0082,-4.6075 0.249,-0.3689 0.5175,-0.455 0.5857,-0.4708 0.4482,-0.1039 0.8729,-0.1187 1.2247,-0.3692l0.081 0.0679c0.3567,-0.4368 0.4686,-1.9526 0.4798,-2.4974l0 -0.0002 0.0001 -0.0018 0.0001 -0.0018 0.0001 -0.0017 -0.0001 -0.0006 -0.0001 -0.003 0.0001 -0.0018 0.0001 -0.0018 0 -0.0002 0 -0.005 0.0001 -0.0018 0 -0.0017 0 -0.0018 0.0001 -0.0018 0.0001 -0.0024 -0.0001 -0.0026 0.0001 -0.0016 0 -0.0006 0.0001 -0.0012 -0.0001 -0.0003 0 -0.0048 0.0001 -0.0018 0 -0.0065 0.0001 -0.0015 0.0001 -0.0018 0 -0.0044 0 -0.0004 0 -0.0015 0 -0.0003 0.0001 -0.0012 -0.0001 -0.0028 0 -0.0005 0 -0.0015 0.0001 -0.0015 0 -0.0027 -0.0001 -0.0005 0.0001 -0.0015 0 -0.0015 0 -0.0024 -0.0001 -0.0006 0.0001 -0.0015 0 -0.0015 0 -0.0023 0 -0.002 0 -0.0015 0.0001 -0.0015 -0.0001 -0.0004 0 -0.0024 0 -0.0014 0.0001 -0.0015 0 -0.0001 -0.0001 -0.0039 0.0001 -0.0015 0 -0.0041 0.0001 -0.0014 0 -0.0001c-0.0001,-0.0134 0,-0.0264 0.0008,-0.039l0 -0.0001c0.0007,-0.0126 0.002,-0.0249 0.0035,-0.0367l0.0001 -0.0003c0.0111,-0.084 0.042,-0.1477 0.0891,-0.1948 0.006,-0.006 0.0123,-0.0118 0.0188,-0.0173 0.396,-0.3388 1.7313,0.2599 2.3173,0.3034 -0.0071,0.0121 -0.0182,0.023 -0.0319,0.0328 -0.0087,0.0179 -0.1011,0.1293 -0.1691,0.165 -0.0151,0.0079 -0.0234,0.0193 -0.0231,0.0296 -0.0052,1.8093 -0.3657,3.0261 -0.4807,3.3341l-0.0001 0 -0.0052 0.0141 -0.0001 0.0001 -0.0047 0.0127 -0.0001 0 -0.0078 0.0032 -0.0001 0 -0.0079 0.0029 -0.0001 0 -0.008 0.0028 -0.0001 0 -0.0081 0.0026 -0.0001 0 -0.0084 0.0025 -0.0001 0 -0.0086 0.0022 -0.0088 0.0021 -0.0088 0.0018 -0.0093 0.0018 -0.0093 0.0015 -0.0095 0.0015 -0.0095 0.0011 -0.0099 0.0012 -0.0099 0.0009 -0.0101 0.0007 -0.0101 0.0005 -0.0106 0.0006 -0.0105 0.0003 -0.0108 0.0001 -0.0108 -0.0001 -0.0111 0 -0.0111 -0.0003 -0.0113 -0.0005 -0.0114 -0.0007 -0.0118 -0.0006 -0.0118 -0.0009 -0.0119 -0.001 0 -0.0001 -0.0119 -0.0011 0 -0.0001 -0.0122 -0.0011 0 -0.0001 -0.0122 -0.0014 0 -0.0001 -0.0125 -0.0014 0.0001 -0.0001 -0.0125 -0.0017 0 -0.0001 -0.0129 -0.0016 0 -0.0001 -0.0128 -0.0018 0 -0.0001 -0.013 -0.002 0 -0.0001 -0.013 -0.0022 0 -0.0001 -0.0133 -0.0022 0 -0.0001 -0.0132 -0.0023 0 -0.0001 -0.0136 -0.0025 0 -0.0001 -0.0134 -0.0027 0 -0.0001 -0.0138 -0.0025 0 -0.0001 -0.0138 -0.0029 0 -0.0001 -0.014 -0.0029 0 -0.0001 -0.0139 -0.0032 0 -0.0001 -0.0143 -0.0031 0 -0.0001 -0.0141 -0.0033 0 -0.0001 -0.0144 -0.0034 -0.0143 -0.0037 -0.0148 -0.0036 -0.0146 -0.0038 -0.0149 -0.0039 -0.0148 -0.0041 -0.0151 -0.004 -0.0149 -0.0042 -0.0153 -0.0044 -0.0151 -0.0045 -0.0155 -0.0044 -0.0001 0 -0.0153 -0.0045 -0.0001 0 -0.0155 -0.0047 -0.0001 0 -0.0155 -0.0049 -0.0001 0 -0.0158 -0.0048 -0.0001 0 -0.0156 -0.0049 -0.0001 0 -0.0158 -0.0051 -0.0001 0 -0.0157 -0.0052 -0.0056 0.0171 -0.0002 0.0005c-0.0547,0.1714 -0.1332,0.388 -0.2316,0.5676l2.3483 2.1139 2.2715 0.4167 0.1551 0.111 0.3332 -0.0855c0.3384,-0.1079 0.4978,-1.1939 0.8426,-1.5346l-0.0318 0.5046 -0.0012 0.0165 0.0001 -0.0003 0 0.0004c0.1341,-0.3483 0.3899,-0.528 0.757,-0.5823 0.0552,-0.0082 0.1059,-0.0119 0.1513,-0.0116l0.0167 0.0003 0.0001 0.0001 0.0162 0.0006 0.0001 0.0001 0.0157 0.001 0.0001 0.0001 0.0152 0.0013 0.0001 0.0001 0.0146 0.0018 0.0001 0.0001 0.0142 0.002 0.0001 0.0001 0.0138 0.0024 0 0.0001 0.0132 0.0026 0.0001 0.0001 0.0125 0.0032 0 0.0001 0.012 0.0034 0.0001 0.0001 0.0114 0.0039 0.0001 0.0001 0.0108 0.004 0.0001 0.0001 0.0102 0.0046 0.0001 0.0001 0.0096 0.0047 0.0001 0.0001 0.0091 0.0051 0.0001 0.0001 0.0085 0.0054 0.0002 0.0001 0.0076 0.0059 0.0002 0.0001 0.0072 0.006 0.0002 0.0001 0.0064 0.0064 0.0002 0.0001 0.006 0.0066 0.0002 0.0001 0.0052 0.0071c0.0591,0.0845 -0.0152,0.2302 -0.2802,0.4106l-0.083 0.9696c0.0495,0.4428 -0.4811,1.0613 -1.2865,1.4233l-0.0057 0.1854 -0.1546 0.0601 -0.0739 0.4136 -3.6292 -0.729 -1.4745 -0.9965c0.0682,0.8198 -0.1558,1.0927 -0.7267,1.7576 -0.5726,0.6669 -1.5848,1.0194 -2.3283,1.9016l1.9022 4.9035c0.1314,0.3387 0.2706,0.4389 0.2463,0.8002 -0.1062,1.5837 -0.3943,4.3197 -0.5421,5.8991 -0.238,0.1144 -0.4791,0.1322 -0.7215,0.1061 -0.0174,0.2139 0.0511,0.4106 0.2214,0.5404 0.2843,0.2166 0.9658,0.7422 1.4308,0.7799 0.2337,0.0093 0.3166,0.3122 0.1568,0.3697 -0.4882,0.2073 -0.8655,0.1485 -1.2453,0.1633 -0.3146,0.0123 -0.476,-0.2281 -0.8139,-0.2428l-0.056 0.2057 -0.6406 -0.0323 -0.1772 -0.0036c-0.0833,-0.4211 -0.1095,-0.7734 -0.1101,-1.0902 -0.0006,-0.3355 0.1456,-0.4636 0.2317,-0.9259l0.0016 0.0008c-0.0085,-0.0046 -0.0162,-0.0089 -0.0239,-0.0138l-0.1125 -0.0708 0.3174 -5.3579 -2.0512 -3.912 -1.9776 4.923 -3.3756 4.9115 -0.5679 -0.1688c0.1216,0.3743 0.1439,0.5725 0.3538,0.7888 0.2098,0.2163 0.3223,0.2726 0.6149,0.3926 0.5053,0.2071 0.4312,0.463 0.0453,0.5137 -0.7083,0.0931 -0.9993,-0.0059 -1.2358,-0.1583 -0.3042,-0.1961 -0.2019,-0.3081 -0.5945,-0.4468l-0.1739 0.0505 -0.4914 -0.5565c0.2156,-0.7522 0.347,-1.0117 0.5743,-1.3953z"/>
			<path id="_139732456" class="fil3" d="M12.7423 25.9571c0.0068,-0.0697 0.0133,-0.1393 0.0196,-0.2086 -0.2865,-0.3105 -0.5034,-0.676 -0.6729,-1.0794 0.8588,-0.7529 1.6424,-1.4129 2.3308,-2.1375 0.2816,-0.2965 2.106,-3.2708 3.0082,-4.6075 0.249,-0.3689 0.5175,-0.455 0.5856,-0.4708 0.4483,-0.1038 0.873,-0.1187 1.2247,-0.3692l0.0811 0.0679c0.0058,-0.0071 0.0115,-0.0145 0.0172,-0.0222 -0.0057,0.0077 -0.0114,0.0151 -0.0172,0.0222l-0.0254 -0.0213c0.2184,0.2821 0.4003,0.5784 0.6561,0.8608l-0.6983 -0.6289c-0.5149,0.276 -1.0249,0.1684 -1.5172,0.5855 -0.4817,0.408 -0.8026,1.3581 -1.2726,2.0491 -0.7576,1.1139 -1.4487,2.4564 -2.4455,3.4039 -0.5228,0.4969 -1.0243,1.0142 -1.5599,1.4651 0.3379,0.7657 0.9879,1.4864 1.95,2.1622 -0.6487,-0.273 -1.1844,-0.7071 -1.6453,-1.2736 -0.0061,0.0672 -0.0124,0.1347 -0.019,0.2023z"/>
			<path id="_121022928" class="fil3" d="M8.6935 36.0463l-0.1461 -0.2181 3.4224 -4.841c0.3117,-1.816 0.608,-3.5816 0.7915,-5.2324 0.1008,0.1239 0.2052,0.2415 0.3136,0.3525l-0.8316 5.128 -3.5498 4.811z"/>
			<path id="_121023048" class="fil3" d="M8.6935 36.0463l0.1995 0.2932c-0.2554,0.2265 -0.4639,0.6587 -0.6334,1.2612l-0.1404 -0.159c0.2156,-0.7523 0.347,-1.0117 0.5743,-1.3954z"/>
			<path id="_121023120" class="fil3" d="M22.006 14.793c-0.0047,1.8698 -0.3891,3.1074 -0.4909,3.3646 -0.1633,0.0683 -0.4495,0.0141 -0.7918,-0.0957 -0.0547,0.174 -0.1351,0.3988 -0.2367,0.5845l-0.2716 -0.183c0.086,-0.2465 0.1008,-0.3642 0.1353,-0.6009 0.255,0.1531 0.5314,0.2341 0.9743,0.1915 0.0156,-1.0111 0.1113,-2.1538 -0.0067,-3.2101 0.1371,0.0228 0.4903,0.0234 0.6881,-0.0509z"/>
			<path id="_119912288" class="fil3" d="M19.7994 14.6562c0.0008,-0.0392 0.0012,-0.0736 0.001,-0.1021 -0.0045,-0.8647 1.7365,-0.0361 2.4297,0.0153 -0.1584,0.266 -2.0205,-0.0648 -2.4307,0.0868z"/>
			<path id="_119912144" class="fil3" d="M18.7556 18.7844c0.2318,-0.2605 0.6448,-0.6779 1.194,-0.2066l2.7427 2.3533 2.8566 0.5373 0.0807 0.1156c0.1001,-0.0082 0.2353,-0.0732 0.2755,-0.1733 0.1127,-0.2804 0.2732,-0.8175 0.4057,-1.1879 0.035,-0.0977 0.0727,-0.1546 0.1044,-0.2113l-0.0113 0.1783c0.1341,-0.3482 0.3899,-0.528 0.757,-0.5823l0.0176 -0.0026 0.0027 -0.0004 0.0058 -0.0008 0.0088 -0.001 0.0055 -0.0007 0.003 -0.0004 0.0086 -0.0009 0.008 -0.0008 0.0004 -0.0001 0.0085 -0.0007 0.0289 -0.0021 0.0035 -0.0002 0.0148 -0.0006 0.0009 -0.0001 0.0134 -0.0003 0.002 0 0.0016 -0.0001 0.0009 0c0.1102,-0.0016 0.1917,0.0194 0.2361,0.059l0.0007 0.0007 0.0022 0.002 0.003 0.0029 0.0014 0.0014 0.0013 0.0015 0.0027 0.003 -0.2527 0.0412c-0.3006,0.0612 -0.5479,0.2191 -0.7912,0.4242l-0.4244 1.2994c-0.0387,0.1185 -0.1134,0.2164 -0.2199,0.2598l-0.0301 0.4209 -0.061 -0.3442 -3.2137 -0.585 -2.6556 -2.413c-0.3597,-0.3268 -0.7994,-0.165 -1.139,0.0149z"/>
			<path id="_41484112" class="fil3" d="M19.5572 22.2163c-0.5312,0.8707 -1.1844,1.3736 -2.3423,2.6324 1.3948,-1.3478 1.931,-0.954 2.9514,-2.4302 0.2045,-0.2959 0.3266,-0.6446 0.3673,-1.0331l-0.4986 -0.3904c-0.0899,0.4364 -0.2064,0.7765 -0.4778,1.2213z"/>
			<polygon id="_122484024" class="fil4" points="20.165,21.0969 19.7506,25.1152 20.2385,25.8825 20.6632,25.0755 20.5199,21.3701 "/>
			<path id="_119869344" class="fil3" d="M15.8304 26.524l2.1081 4.5648 -0.3197 5.5328c-0.0758,-0.0112 -0.1816,-0.0456 -0.2507,-0.0891l-0.1124 -0.0709 0.3173 -5.3577 -2.0512 -3.9121 0.3086 -0.6678z"/>
			<path id="_143175072" class="fil3" d="M17.4617 38.5656l-0.1927 -0.0039c-0.0832,-0.4211 -0.1094,-0.7734 -0.11,-1.0902 -0.0006,-0.3355 0.1455,-0.4636 0.2315,-0.9259 0.0682,0.0373 0.1602,0.0659 0.2283,0.076l0.0498 0.0109c-0.084,0.542 -0.4396,0.5702 -0.2069,1.9331z"/>
  </g>
 </g>
</svg>
